<svg width="12" height="12" viewBox="0 0 12 12" fill="none" xmlns="http://www.w3.org/2000/svg">
<path fill-rule="evenodd" clip-rule="evenodd" d="M12 6C12 2.6862 9.3138 0 6 0C2.6862 0 0 2.6862 0 6C0 9.3138 2.6862 12 6 12C9.3138 12 12 9.3138 12 6ZM6 3C6.15913 3 6.31174 3.06321 6.42426 3.17574C6.53679 3.28826 6.6 3.44087 6.6 3.6V6.6C6.6 6.75913 6.53679 6.91174 6.42426 7.02426C6.31174 7.13679 6.15913 7.2 6 7.2C5.84087 7.2 5.68826 7.13679 5.57574 7.02426C5.46321 6.91174 5.4 6.75913 5.4 6.6V3.6C5.4 3.44087 5.46321 3.28826 5.57574 3.17574C5.68826 3.06321 5.84087 3 6 3ZM5.4 8.4C5.4 8.24087 5.46321 8.08826 5.57574 7.97574C5.68826 7.86321 5.84087 7.8 6 7.8H6.0048C6.16393 7.8 6.31654 7.86321 6.42906 7.97574C6.54159 8.08826 6.6048 8.24087 6.6048 8.4C6.6048 8.55913 6.54159 8.71174 6.42906 8.82426C6.31654 8.93679 6.16393 9 6.0048 9H6C5.84087 9 5.68826 8.93679 5.57574 8.82426C5.46321 8.71174 5.4 8.55913 5.4 8.4Z" fill="#FF5C5F"/>
</svg>
