<svg width="20" height="20" viewBox="0 0 20 20" fill="none" xmlns="http://www.w3.org/2000/svg">
<path fill-rule="evenodd" clip-rule="evenodd" d="M9.92162 1.66167C10.8337 1.65014 11.7385 1.8259 12.5799 2.17809C13.4213 2.53028 14.1815 3.05139 14.8135 3.70919C15.4454 4.36698 15.9356 5.14746 16.2538 6.00233C16.572 6.8572 16.7114 7.76827 16.6633 8.67917C16.6004 9.85447 16.2275 10.9922 15.5825 11.9767C15.5526 12.0376 15.5154 12.0947 15.4716 12.1467L15.3816 12.2542C15.2327 12.4569 15.0736 12.6511 14.9041 12.8367L10.6441 18.0233C10.5659 18.1184 10.4677 18.195 10.3564 18.2476C10.2451 18.3002 10.1235 18.3275 10.0004 18.3275C9.87727 18.3275 9.75569 18.3002 9.64438 18.2476C9.53307 18.195 9.4348 18.1184 9.35662 18.0233L4.98496 12.7167L4.98329 12.715C4.89603 12.6106 4.81018 12.5051 4.72579 12.3983L4.61496 12.2625C4.57221 12.2109 4.53584 12.1544 4.50662 12.0942C3.82381 11.0991 3.42409 9.93723 3.35016 8.73268C3.27623 7.52812 3.53087 6.32611 4.08687 5.255C4.64288 4.18389 5.47937 3.28391 6.50702 2.65118C7.53467 2.01845 8.71489 1.67589 9.92162 1.66167ZM12.5 8.33083C12.506 8.66292 12.4459 8.99289 12.323 9.30147C12.2001 9.61004 12.0169 9.89103 11.7842 10.128C11.5515 10.365 11.2739 10.5533 10.9676 10.6818C10.6613 10.8103 10.3325 10.8765 10.0004 10.8765C9.66823 10.8765 9.33941 10.8103 9.03313 10.6818C8.72685 10.5533 8.44925 10.365 8.21654 10.128C7.98384 9.89103 7.80068 9.61004 7.67779 9.30147C7.5549 8.99289 7.49473 8.66292 7.50079 8.33083C7.51275 7.6758 7.78136 7.05165 8.24882 6.59264C8.71628 6.13364 9.34524 5.87647 10.0004 5.87647C10.6555 5.87647 11.2845 6.13364 11.7519 6.59264C12.2194 7.05165 12.488 7.6758 12.5 8.33083Z" fill="#535355"/>
</svg>
