<svg width="20" height="24" viewBox="0 0 20 24" fill="none" xmlns="http://www.w3.org/2000/svg">
<path d="M10 12C8.9 12 7.95833 11.6083 7.175 10.825C6.39167 10.0417 6 9.1 6 8C6 6.9 6.39167 5.95833 7.175 5.175C7.95833 4.39167 8.9 4 10 4C11.1 4 12.0417 4.39167 12.825 5.175C13.6083 5.95833 14 6.9 14 8C14 9.1 13.6083 10.0417 12.825 10.825C12.0417 11.6083 11.1 12 10 12ZM2 20V17.2C2 16.6333 2.146 16.1127 2.438 15.638C2.73 15.1633 3.11733 14.8007 3.6 14.55C4.63333 14.0333 5.68333 13.646 6.75 13.388C7.81667 13.13 8.9 13.0007 10 13C11.1 12.9993 12.1833 13.1287 13.25 13.388C14.3167 13.6473 15.3667 14.0347 16.4 14.55C16.8833 14.8 17.271 15.1627 17.563 15.638C17.855 16.1133 18.0007 16.634 18 17.2V20H2Z" fill="#333333"/>
</svg>
