<svg width="19" height="18" viewBox="0 0 19 18" fill="none" xmlns="http://www.w3.org/2000/svg">
<path d="M9.50049 0.285645C10.0528 0.285645 10.5005 0.73336 10.5005 1.28564V7.99951H17.2144L17.3169 8.00439C17.821 8.05579 18.2144 8.48188 18.2144 8.99951C18.2144 9.51714 17.821 9.94323 17.3169 9.99463L17.2144 9.99951H10.5005V16.7144L10.4956 16.8169C10.444 17.3208 10.018 17.7144 9.50049 17.7144C8.983 17.7144 8.55696 17.3208 8.50537 16.8169L8.50049 16.7144V9.99951H1.78564C1.23336 9.99951 0.785645 9.5518 0.785645 8.99951C0.785645 8.44723 1.23336 7.99951 1.78564 7.99951H8.50049V1.28564C8.50049 0.73336 8.9482 0.285645 9.50049 0.285645Z" fill="#CACACB"/>
</svg>
