<svg width="25" height="25" viewBox="0 0 25 25" fill="none" xmlns="http://www.w3.org/2000/svg">
<path d="M12.25 1.49036C16.7143 1.49036 20.7498 4.90413 20.75 10.215C20.75 11.9476 20.0524 13.8895 18.585 16.0529C17.1724 18.1352 15.065 20.3935 12.25 22.8292C9.43501 20.3935 7.32757 18.1352 5.91504 16.0529C4.44763 13.8895 3.75 11.9476 3.75 10.215C3.7502 4.90413 7.7857 1.49036 12.25 1.49036ZM12.25 2.74036C8.19876 2.74036 5.00019 5.86179 5 10.215C5 11.6655 5.60176 13.2914 6.74707 15.0548C7.89575 16.8233 9.61587 18.7686 11.9131 20.8673L12.25 21.1749L12.5869 20.8673C14.8841 18.7686 16.6043 16.8233 17.7529 15.0548C18.8982 13.2914 19.5 11.6655 19.5 10.215C19.4998 5.86179 16.3012 2.74036 12.25 2.74036ZM12.25 8.24036C13.2114 8.24036 14 9.029 14 9.99036C14 10.9517 13.2114 11.7404 12.25 11.7404C11.2886 11.7404 10.5 10.9517 10.5 9.99036C10.5 9.029 11.2886 8.24036 12.25 8.24036Z" fill="white" stroke="white"/>
</svg>
