<svg width="24" height="25" viewBox="0 0 24 25" fill="none" xmlns="http://www.w3.org/2000/svg">
<path d="M12 3.44036C10.9686 3.44036 9.97945 3.84598 9.25014 4.568C8.52083 5.29001 8.11111 6.26927 8.11111 7.29036C8.11111 8.31144 8.52083 9.2907 9.25014 10.0127C9.97945 10.7347 10.9686 11.1404 12 11.1404C13.0314 11.1404 14.0206 10.7347 14.7499 10.0127C15.4792 9.2907 15.8889 8.31144 15.8889 7.29036C15.8889 6.26927 15.4792 5.29001 14.7499 4.568C14.0206 3.84598 13.0314 3.44036 12 3.44036ZM5.88889 7.29036C5.88889 5.6858 6.53274 4.14696 7.67879 3.01236C8.82485 1.87777 10.3792 1.24036 12 1.24036C13.6208 1.24036 15.1752 1.87777 16.3212 3.01236C17.4673 4.14696 18.1111 5.6858 18.1111 7.29036C18.1111 8.89492 17.4673 10.4338 16.3212 11.5684C15.1752 12.7029 13.6208 13.3404 12 13.3404C10.3792 13.3404 8.82485 12.7029 7.67879 11.5684C6.53274 10.4338 5.88889 8.89492 5.88889 7.29036ZM2 19.9404C2 18.4817 2.58532 17.0827 3.62718 16.0513C4.66905 15.0198 6.08213 14.4404 7.55556 14.4404H16.4444C17.9179 14.4404 19.3309 15.0198 20.3728 16.0513C21.4147 17.0827 22 18.4817 22 19.9404V23.2404H2V19.9404ZM7.55556 16.6404C6.6715 16.6404 5.82365 16.988 5.19853 17.6069C4.57341 18.2258 4.22222 19.0651 4.22222 19.9404V21.0404H19.7778V19.9404C19.7778 19.0651 19.4266 18.2258 18.8015 17.6069C18.1763 16.988 17.3285 16.6404 16.4444 16.6404H7.55556Z" fill="white"/>
</svg>
