<svg width="24" height="25" viewBox="0 0 24 25" fill="none" xmlns="http://www.w3.org/2000/svg">
<path d="M22 20.834V10.209C22 10.0149 21.9548 9.82354 21.868 9.64997C21.7812 9.4764 21.6552 9.32542 21.5 9.20898L12.75 2.64648C12.5336 2.48421 12.2705 2.39648 12 2.39648C11.7295 2.39648 11.4664 2.48421 11.25 2.64648L2.5 9.20898C2.34476 9.32542 2.21875 9.4764 2.13197 9.64997C2.04518 9.82354 2 10.0149 2 10.209V20.834C2 21.1655 2.1317 21.4835 2.36612 21.7179C2.60054 21.9523 2.91848 22.084 3.25 22.084H8.25C8.58152 22.084 8.89946 21.9523 9.13388 21.7179C9.3683 21.4835 9.5 21.1655 9.5 20.834V17.084C9.5 16.7525 9.6317 16.4345 9.86612 16.2001C10.1005 15.9657 10.4185 15.834 10.75 15.834H13.25C13.5815 15.834 13.8995 15.9657 14.1339 16.2001C14.3683 16.4345 14.5 16.7525 14.5 17.084V20.834C14.5 21.1655 14.6317 21.4835 14.8661 21.7179C15.1005 21.9523 15.4185 22.084 15.75 22.084H20.75C21.0815 22.084 21.3995 21.9523 21.6339 21.7179C21.8683 21.4835 22 21.1655 22 20.834Z" fill="#ECECEC"/>
</svg>
