<svg width="25" height="25" viewBox="0 0 25 25" fill="none" xmlns="http://www.w3.org/2000/svg">
<path d="M17.6585 7.08405C17.2686 6.69396 17.0403 6.17104 17.0192 5.61987C16.9982 5.0687 17.186 4.5299 17.5451 4.11123C17.5748 4.07641 17.5902 4.03165 17.5883 3.98593C17.5864 3.9402 17.5673 3.89689 17.5348 3.86467L15.4662 1.79373C15.432 1.75956 15.3856 1.74036 15.3373 1.74036C15.2889 1.74036 15.2426 1.75956 15.2084 1.79373L11.9112 5.09092C11.7895 5.21252 11.6979 5.36082 11.6435 5.52405C11.5894 5.68763 11.4978 5.83634 11.3762 5.95839C11.2546 6.08044 11.1062 6.17247 10.9428 6.22717C10.7794 6.28159 10.631 6.37322 10.5092 6.49483L2.05338 14.9487C2.0192 14.9829 2 15.0293 2 15.0776C2 15.126 2.0192 15.1724 2.05338 15.2065L4.12197 17.2751C4.15419 17.3076 4.1975 17.3268 4.24323 17.3287C4.28895 17.3306 4.33371 17.3152 4.36853 17.2855C4.78711 16.926 5.32603 16.7379 5.87739 16.7588C6.42875 16.7797 6.95187 17.0081 7.34203 17.3982C7.73218 17.7884 7.96057 18.3115 7.98148 18.8628C8.00239 19.4142 7.81427 19.9531 7.45478 20.3717C7.42508 20.4065 7.40964 20.4513 7.41155 20.497C7.41347 20.5427 7.43259 20.586 7.4651 20.6183L9.53369 22.6869C9.56788 22.721 9.61425 22.7402 9.6626 22.7402C9.71094 22.7402 9.75731 22.721 9.7915 22.6869L18.2478 14.2311C18.3694 14.1092 18.461 13.9608 18.5154 13.7975C18.5696 13.6339 18.6611 13.4852 18.7827 13.3631C18.9044 13.2411 19.0528 13.1491 19.2162 13.0944C19.3794 13.04 19.5277 12.9484 19.6493 12.8267L22.9465 9.52951C22.9807 9.49532 22.9999 9.44895 22.9999 9.40061C22.9999 9.35226 22.9807 9.3059 22.9465 9.2717L20.8779 7.20311C20.8457 7.1706 20.8024 7.15148 20.7567 7.14957C20.7109 7.14765 20.6662 7.1631 20.6313 7.1928C20.2133 7.5525 19.6748 7.74113 19.1236 7.72097C18.5725 7.70081 18.0492 7.47334 17.6585 7.08405Z" stroke="#ECECEC" stroke-width="2" stroke-miterlimit="10"/>
<path d="M12.2422 6.82334L11.4683 6.04944M14.3056 8.88678L13.7895 8.37116M16.369 10.9507L15.8534 10.4346M18.6908 13.2719L17.9169 12.498" stroke="#ECECEC" stroke-width="2" stroke-miterlimit="10" stroke-linecap="round"/>
</svg>
