<svg width="16" height="16" viewBox="0 0 16 16" fill="none" xmlns="http://www.w3.org/2000/svg">
<rect x="0.5" y="0.5" width="15" height="15" rx="1.5" stroke="#B5FF60"/>
<path d="M5.70443 10.5882L3.21906 8.27019C3.08514 8.14529 2.90351 8.07512 2.71411 8.07512C2.52472 8.07512 2.34308 8.14529 2.20916 8.27019C2.07524 8.3951 2 8.5645 2 8.74114C2 8.82861 2.01847 8.91521 2.05436 8.99602C2.09025 9.07683 2.14285 9.15025 2.20916 9.2121L5.20306 12.0044C5.4824 12.2649 5.93363 12.2649 6.21297 12.0044L13.7908 4.93678C13.9248 4.81188 14 4.64247 14 4.46583C14 4.28919 13.9248 4.11978 13.7908 3.99488C13.6569 3.86998 13.4753 3.7998 13.2859 3.7998C13.0965 3.7998 12.9149 3.86998 12.7809 3.99488L5.70443 10.5882Z" fill="#B5FF60"/>
</svg>
