<svg width="35" height="36" viewBox="0 0 35 36" fill="none" xmlns="http://www.w3.org/2000/svg">
<path d="M9.84375 20.1875H7.65625V35.5H9.84375C10.4453 35.5 10.9375 35.0078 10.9375 34.4062V21.2812C10.9375 20.6797 10.4453 20.1875 9.84375 20.1875ZM25.1562 20.1875C24.5547 20.1875 24.0625 20.6797 24.0625 21.2812V34.4062C24.0625 35.0078 24.5547 35.5 25.1562 35.5H27.3438V20.1875H25.1562Z" fill="#ECECEC"/>
<path d="M35 18C34.9983 15.446 34.4376 12.9233 33.3572 10.6091C32.2769 8.29487 30.7031 6.24515 28.7463 4.60385C26.7895 2.96254 24.4972 1.76943 22.0303 1.10827C19.5634 0.447113 16.9816 0.333933 14.4663 0.776678C11.951 1.21942 9.56309 2.20736 7.47019 3.67114C5.3773 5.13491 3.63016 7.03904 2.35144 9.24986C1.07271 11.4607 0.293398 13.9246 0.0681957 16.4686C-0.157006 19.0127 0.177366 21.5752 1.04784 23.9762C0.413991 25.0593 0.0560744 26.2815 0.00558889 27.5354C-0.0448966 28.7893 0.213597 30.0363 0.75832 31.1668C1.30304 32.2973 2.11729 33.2766 3.12941 34.0185C4.14153 34.7603 5.32049 35.2421 6.56253 35.4212V20.2662C5.49609 20.42 4.47413 20.7972 3.56346 21.3731C3.14681 19.3089 3.19386 17.1779 3.70121 15.1341C4.20856 13.0904 5.16354 11.1848 6.49716 9.55506C7.83078 7.92535 9.50975 6.61221 11.4128 5.71051C13.3158 4.80881 15.3953 4.34107 17.5011 4.34107C19.6069 4.34107 21.6865 4.80881 23.5895 5.71051C25.4925 6.61221 27.1715 7.92535 28.5051 9.55506C29.8387 11.1848 30.7937 13.0904 31.301 15.1341C31.8084 17.1779 31.8554 19.3089 31.4388 21.3731C30.5276 20.7962 29.5049 20.4182 28.4375 20.264V35.4212C29.6796 35.2421 30.8585 34.7603 31.8706 34.0185C32.8828 33.2766 33.697 32.2973 34.2417 31.1668C34.7865 30.0363 35.0449 28.7893 34.9945 27.5354C34.944 26.2815 34.5861 25.0593 33.9522 23.9762C34.6303 22.1103 35 20.0978 35 18Z" fill="#ECECEC"/>
<path d="M12.7273 27.9242H14.653C14.7015 27.9242 14.743 27.8894 14.7515 27.8417L15.5666 23.2369C15.5854 23.1305 15.7362 23.1254 15.7622 23.2302L17.6585 30.8835C17.6833 30.9836 17.8251 30.9852 17.8521 30.8856L19.1855 25.9707C19.21 25.8802 19.3345 25.8703 19.3731 25.9557L20.2366 27.8654C20.2528 27.9012 20.2884 27.9242 20.3277 27.9242H22.2728" stroke="#ECECEC" stroke-linecap="round"/>
</svg>
