<svg width="41" height="40" viewBox="0 0 41 40" fill="none" xmlns="http://www.w3.org/2000/svg">
<path d="M21.4375 7.68726H8.3125C7.26821 7.68726 6.26669 8.10211 5.52827 8.84054C4.78984 9.57898 4.375 10.5805 4.375 11.6248V12.9741C4.59025 12.9496 4.809 12.9373 5.03125 12.9373C6.48402 12.9374 7.88582 13.4729 8.96864 14.4414C10.0515 15.41 10.7393 16.7436 10.9008 18.1874H18.8493C19.0233 16.6307 19.8087 15.2069 21.0325 14.2293C22.2563 13.2516 23.8183 12.8001 25.375 12.9741V11.6248C25.375 10.5805 24.9602 9.57898 24.2217 8.84054C23.4833 8.10211 22.4818 7.68726 21.4375 7.68726ZM24.7188 15.5624C24.9463 15.5624 25.165 15.5843 25.375 15.628C26.8713 15.9325 28 17.2555 28 18.8437V24.75C28.0004 25.5647 27.7482 26.3594 27.2781 27.0246C26.8079 27.6899 26.143 28.1929 25.375 28.4645V30.0001C25.375 30.3482 25.2367 30.6821 24.9906 30.9282C24.7444 31.1744 24.4106 31.3126 24.0625 31.3126C23.7144 31.3126 23.3806 31.1744 23.1344 30.9282C22.8883 30.6821 22.75 30.3482 22.75 30.0001V28.6876H7V30.0001C7 30.3482 6.86172 30.6821 6.61558 30.9282C6.36944 31.1744 6.0356 31.3126 5.6875 31.3126C5.3394 31.3126 5.00556 31.1744 4.75942 30.9282C4.51328 30.6821 4.375 30.3482 4.375 30.0001V28.4645C3.60698 28.1929 2.94209 27.6899 2.47195 27.0246C2.00181 26.3594 1.74957 25.5647 1.75 24.75V18.8437C1.75 17.9734 2.0957 17.1388 2.71106 16.5235C3.32641 15.9081 4.16101 15.5624 5.03125 15.5624C5.90149 15.5624 6.73609 15.9081 7.35144 16.5235C7.9668 17.1388 8.3125 17.9734 8.3125 18.8437C8.3125 19.9305 9.1945 20.8125 10.2813 20.8125H19.4688C19.9909 20.8125 20.4917 20.605 20.8609 20.2358C21.2301 19.8666 21.4375 19.3658 21.4375 18.8437C21.4375 17.0324 22.9075 15.5624 24.7188 15.5624Z" fill="#ECECEC"/>
<path d="M29.5672 13.953C29.11 13.953 28.8462 14.4811 29.1384 14.8424L31.5165 17.7861V19.578H30.2915C30.2294 19.578 30.1698 19.6027 30.1258 19.6466C30.0818 19.6906 30.0572 19.7502 30.0572 19.8124C30.0572 19.8745 30.0818 19.9342 30.1258 19.9781C30.1698 20.0221 30.2294 20.0468 30.2915 20.0468H33.2106C33.2728 20.0468 33.3324 20.0221 33.3763 19.9781C33.4203 19.9342 33.445 19.8745 33.445 19.8124C33.445 19.7502 33.4203 19.6906 33.3763 19.6466C33.3324 19.6027 33.2728 19.578 33.2106 19.578H31.9856V17.7858L34.3637 14.8424C34.6556 14.4808 34.3918 13.953 33.9347 13.953H29.5672ZM30.1587 15.3593L29.5031 14.5477C29.494 14.536 29.4885 14.5219 29.4871 14.5072C29.4857 14.4925 29.4885 14.4776 29.4952 14.4644C29.5019 14.4512 29.5123 14.4402 29.525 14.4327C29.5377 14.4251 29.5524 14.4213 29.5672 14.4218H33.9347C34.0068 14.4218 34.0378 14.4999 33.999 14.5477L33.3434 15.3593H30.1587Z" fill="#ECECEC"/>
<path d="M34.8027 19.3174H38.4648C38.8982 19.3174 39.25 19.6691 39.25 20.1025C39.2499 20.5359 38.8982 20.8867 38.4648 20.8867H34.8027V27.7402H36.1113C36.4002 27.7402 36.6347 27.9748 36.6348 28.2637C36.6348 28.5526 36.4003 28.7871 36.1113 28.7871H34.8027V29.3096H33.2334V28.7871H31.9258C31.637 28.7869 31.4033 28.5525 31.4033 28.2637C31.4034 27.9749 31.637 27.7404 31.9258 27.7402H33.2334V20.8867H29.5713C29.1381 20.8865 28.7872 20.5357 28.7871 20.1025C28.7871 19.6693 29.1381 19.3176 29.5713 19.3174H33.2334V18.8467H34.8027V19.3174Z" fill="#ECECEC"/>
</svg>
