<svg width="41" height="40" viewBox="0 0 41 40" fill="none" xmlns="http://www.w3.org/2000/svg">
<path fill-rule="evenodd" clip-rule="evenodd" d="M19.228 4.07373C17.1411 4.07373 15.1398 4.90273 13.6642 6.37834C12.1885 7.85396 11.3595 9.85533 11.3595 11.9422V19.8106C11.3595 21.8974 12.1885 23.8988 13.6642 25.3744C15.1398 26.85 17.1411 27.679 19.228 27.679C21.3148 27.679 23.3162 26.85 24.7918 25.3744C26.2674 23.8988 27.0964 21.8974 27.0964 19.8106V16.6632C27.0964 16.2459 26.9306 15.8456 26.6355 15.5505C26.3404 15.2553 25.9401 15.0895 25.5227 15.0895C25.1054 15.0895 24.7051 15.2553 24.41 15.5505C24.1148 15.8456 23.949 16.2459 23.949 16.6632V19.8106C23.949 21.0627 23.4516 22.2635 22.5663 23.1489C21.6809 24.0343 20.4801 24.5317 19.228 24.5317C17.9759 24.5317 16.7751 24.0343 15.8897 23.1489C15.0043 22.2635 14.5069 21.0627 14.5069 19.8106V11.9422C14.5066 11.2215 14.6713 10.5103 14.9884 9.8631C15.3055 9.21592 15.7665 8.64991 16.3361 8.20846C16.9058 7.76701 17.569 7.46184 18.2748 7.31634C18.9807 7.17084 19.7104 7.18886 20.4082 7.36903C20.6099 7.42585 20.821 7.4418 21.0289 7.41597C21.2369 7.39014 21.4376 7.32303 21.6192 7.2186C21.8009 7.11416 21.9599 6.97449 22.0868 6.80778C22.2138 6.64108 22.3062 6.4507 22.3586 6.2478C22.411 6.04491 22.4224 5.8336 22.392 5.62626C22.3616 5.41892 22.2902 5.21974 22.1818 5.04039C22.0734 4.86104 21.9303 4.70515 21.7609 4.58185C21.5914 4.45855 21.3991 4.37034 21.1951 4.32237C20.5525 4.15688 19.8915 4.07334 19.228 4.07373ZM20.8017 32.3025C23.5369 31.9572 26.0832 30.7239 28.0501 28.792C30.0169 26.8602 31.2956 24.3363 31.69 21.6078C31.7493 21.1946 31.642 20.7747 31.3917 20.4407C31.1414 20.1066 30.7687 19.8856 30.3555 19.8263C29.9423 19.7671 29.5225 19.8744 29.1884 20.1246C28.8544 20.3749 28.6334 20.7476 28.5741 21.1608C28.2463 23.4056 27.1215 25.4573 25.4054 26.941C23.6893 28.4247 21.4965 29.2412 19.228 29.2412C16.9594 29.2412 14.7667 28.4247 13.0506 26.941C11.3345 25.4573 10.2097 23.4056 9.88185 21.1608C9.82259 20.7476 9.60161 20.3749 9.26753 20.1246C8.93345 19.8744 8.51363 19.7671 8.10044 19.8263C7.68724 19.8856 7.31452 20.1066 7.06425 20.4407C6.81399 20.7747 6.70668 21.1946 6.76595 21.6078C7.16032 24.3363 8.43902 26.8602 10.4059 28.792C12.3727 30.7239 14.9191 31.9572 17.6543 32.3025V33.9738C17.6543 34.3911 17.8201 34.7914 18.1152 35.0865C18.4103 35.3817 18.8106 35.5475 19.228 35.5475C19.6453 35.5475 20.0456 35.3817 20.3407 35.0865C20.6359 34.7914 20.8017 34.3911 20.8017 33.9738V32.3025Z" fill="#ECECEC"/>
<path d="M32.6763 2.5L31.9553 4.07369L30.3874 4.789L31.9553 5.51003L32.6763 7.078L33.3917 5.51003L34.9653 4.789L33.3917 4.07369M26.9539 4.21675L25.5232 7.36412L22.3759 8.79475L25.5232 10.2254L26.9539 13.3727L28.3845 10.2254L31.5318 8.79475L28.3845 7.36412M32.6763 10.5115L31.9553 12.0795L30.3874 12.8005L31.9553 13.5158L32.6763 15.0895L33.3917 13.5158L34.9653 12.8005L33.3917 12.0795" fill="#ECECEC"/>
</svg>
