<svg width="41" height="40" viewBox="0 0 41 40" fill="none" xmlns="http://www.w3.org/2000/svg">
<path d="M7.28467 36.602V21.6016H15.4793C16.9917 21.6016 18.1414 21.9587 18.9284 22.673C19.7155 23.3873 20.109 24.4122 20.109 25.7476C20.109 26.5241 19.9624 27.1762 19.6692 27.7042C19.3914 28.2322 19.021 28.6514 18.5581 28.962C19.1908 29.2105 19.6923 29.5754 20.0627 30.0568C20.4485 30.5226 20.6414 31.2214 20.6414 32.1531C20.6414 33.5662 20.2093 34.6609 19.3451 35.4373C18.4809 36.2137 17.254 36.602 15.6645 36.602H7.28467ZM11.4746 27.5877H14.2987C15.3635 27.5877 15.896 27.1064 15.896 26.1436C15.896 25.6622 15.7648 25.2973 15.5024 25.0489C15.2555 24.8004 14.8157 24.6762 14.183 24.6762H11.4746V27.5877ZM11.4746 33.5506H14.4839C15.0703 33.5506 15.5024 33.4264 15.7802 33.178C16.058 32.9295 16.1969 32.518 16.1969 31.9434C16.1969 31.4621 16.058 31.0972 15.7802 30.8487C15.5024 30.6002 15.0395 30.476 14.3913 30.476H11.4746V33.5506Z" fill="#ECECEC"/>
<path d="M33.5903 24.8555H25.9868L28.3003 29.0869L25.9868 33.3174H33.5903V36.6016H20.644L24.7544 29.0869L20.644 21.6016H33.5903V24.8555ZM31.3286 26.7383C32.5769 26.7384 33.5884 27.7508 33.5884 28.999C33.5883 30.2472 32.5768 31.2587 31.3286 31.2588C30.0803 31.2588 29.0679 30.2473 29.0679 28.999C29.0679 27.7507 30.0802 26.7383 31.3286 26.7383Z" fill="#ECECEC"/>
<path d="M29.9541 18.75H25.8447V11.9697H25.8418L31.3262 3.75H35.5L29.9512 11.9697H29.9541V18.75ZM24.8164 3.75C26.1783 3.75 27.2822 4.85399 27.2822 6.21582C27.2822 7.57765 26.1783 8.68164 24.8164 8.68164C23.4547 8.68146 22.3506 7.57754 22.3506 6.21582C22.3506 4.8541 23.4547 3.75018 24.8164 3.75Z" fill="#ECECEC"/>
<path d="M11.2537 18.7504L5.5 3.75H10.0207L13.5141 13.5778L16.9046 3.75H21.5281L15.7744 18.7504H11.2537Z" fill="#ECECEC"/>
</svg>
