<svg width="41" height="40" viewBox="0 0 41 40" fill="none" xmlns="http://www.w3.org/2000/svg">
<path d="M33.538 19.2348L33.4873 19.217C33.5806 19.572 33.6613 19.9344 33.7262 20.3024C34.9986 27.5198 30.1786 34.402 22.9616 35.6747C15.7445 36.947 8.86227 32.1283 7.58941 24.911C6.71461 19.949 8.71846 15.1438 12.4018 12.2125L20.7441 4.28701L21.5436 8.82155L31.0411 1.24969L33.538 19.2348ZM16.6807 20.3281L16.6861 20.3301C14.95 21.5622 13.9803 23.7237 14.3746 25.9596C14.9203 29.0526 17.8703 31.1185 20.9633 30.5731C24.0559 30.0274 26.1208 27.0774 25.5758 23.9845C25.5579 23.8831 25.5367 23.7823 25.5137 23.6831L23.7086 14.6434L16.6807 20.3281Z" fill="#ECECEC"/>
</svg>
