<svg width="34" height="34" viewBox="0 0 34 34" fill="none" xmlns="http://www.w3.org/2000/svg">
<path d="M15.25 30.75C15.8023 30.75 16.25 31.1977 16.25 31.75V32.25C16.25 32.8023 15.8023 33.25 15.25 33.25H9.75C9.19772 33.25 8.75 32.8023 8.75 32.25V31.75C8.75 31.1977 9.19772 30.75 9.75 30.75H15.25ZM15.25 25.75C15.8023 25.75 16.25 26.1977 16.25 26.75V27.25C16.25 27.8023 15.8023 28.25 15.25 28.25H9.75C9.19772 28.25 8.75 27.8023 8.75 27.25V26.75C8.75 26.1977 9.19772 25.75 9.75 25.75H15.25ZM15.25 20.75C15.8023 20.75 16.25 21.1977 16.25 21.75V22.25C16.25 22.8023 15.8023 23.25 15.25 23.25H9.75C9.19772 23.25 8.75 22.8023 8.75 22.25V21.75C8.75 21.1977 9.19772 20.75 9.75 20.75H15.25ZM15.25 15.75C15.8023 15.75 16.25 16.1977 16.25 16.75V17.25C16.25 17.8023 15.8023 18.25 15.25 18.25H9.75C9.19772 18.25 8.75 17.8023 8.75 17.25V16.75C8.75 16.1977 9.19772 15.75 9.75 15.75H15.25ZM15.25 10.75C15.8023 10.75 16.25 11.1977 16.25 11.75V12.25C16.25 12.8023 15.8023 13.25 15.25 13.25H9.75C9.19772 13.25 8.75 12.8023 8.75 12.25V11.75C8.75 11.1977 9.19772 10.75 9.75 10.75H15.25ZM15.25 5.75C15.8023 5.75 16.25 6.19772 16.25 6.75V7.25C16.25 7.80228 15.8023 8.25 15.25 8.25H9.75C9.19772 8.25 8.75 7.80228 8.75 7.25V6.75C8.75 6.19772 9.19772 5.75 9.75 5.75H15.25ZM15.25 0.75C15.8023 0.75 16.25 1.19772 16.25 1.75V2.25C16.25 2.80228 15.8023 3.25 15.25 3.25H9.75C9.19772 3.25 8.75 2.80228 8.75 2.25V1.75C8.75 1.19772 9.19772 0.75 9.75 0.75H15.25Z" fill="#ECECEC"/>
<path d="M24 30.75C24.5523 30.75 25 31.1977 25 31.75V32.25C25 32.8023 24.5523 33.25 24 33.25H18.5C17.9477 33.25 17.5 32.8023 17.5 32.25V31.75C17.5 31.1977 17.9477 30.75 18.5 30.75H24ZM24 25.75C24.5523 25.75 25 26.1977 25 26.75V27.25C25 27.8023 24.5523 28.25 24 28.25H18.5C17.9477 28.25 17.5 27.8023 17.5 27.25V26.75C17.5 26.1977 17.9477 25.75 18.5 25.75H24ZM24 20.75C24.5523 20.75 25 21.1977 25 21.75V22.25C25 22.8023 24.5523 23.25 24 23.25H18.5C17.9477 23.25 17.5 22.8023 17.5 22.25V21.75C17.5 21.1977 17.9477 20.75 18.5 20.75H24Z" fill="#D9D9D9"/>
<path d="M32.75 30.75C33.3023 30.75 33.75 31.1977 33.75 31.75V32.25C33.75 32.8023 33.3023 33.25 32.75 33.25H27.25C26.6977 33.25 26.25 32.8023 26.25 32.25V31.75C26.25 31.1977 26.6977 30.75 27.25 30.75H32.75ZM32.75 25.75C33.3023 25.75 33.75 26.1977 33.75 26.75V27.25C33.75 27.8023 33.3023 28.25 32.75 28.25H27.25C26.6977 28.25 26.25 27.8023 26.25 27.25V26.75C26.25 26.1977 26.6977 25.75 27.25 25.75H32.75ZM32.75 20.75C33.3023 20.75 33.75 21.1977 33.75 21.75V22.25C33.75 22.8023 33.3023 23.25 32.75 23.25H27.25C26.6977 23.25 26.25 22.8023 26.25 22.25V21.75C26.25 21.1977 26.6977 20.75 27.25 20.75H32.75ZM32.75 15.75C33.3023 15.75 33.75 16.1977 33.75 16.75V17.25C33.75 17.8023 33.3023 18.25 32.75 18.25H27.25C26.6977 18.25 26.25 17.8023 26.25 17.25V16.75C26.25 16.1977 26.6977 15.75 27.25 15.75H32.75ZM32.75 10.75C33.3023 10.75 33.75 11.1977 33.75 11.75V12.25C33.75 12.8023 33.3023 13.25 32.75 13.25H27.25C26.6977 13.25 26.25 12.8023 26.25 12.25V11.75C26.25 11.1977 26.6977 10.75 27.25 10.75H32.75Z" fill="#D9D9D9"/>
<path d="M6.5 30.75C7.05228 30.75 7.5 31.1977 7.5 31.75V32.25C7.5 32.8023 7.05228 33.25 6.5 33.25H1C0.447715 33.25 8.05325e-09 32.8023 0 32.25V31.75C0 31.1977 0.447715 30.75 1 30.75H6.5ZM6.5 25.75C7.05228 25.75 7.5 26.1977 7.5 26.75V27.25C7.5 27.8023 7.05228 28.25 6.5 28.25H1C0.447715 28.25 8.05325e-09 27.8023 0 27.25V26.75C0 26.1977 0.447715 25.75 1 25.75H6.5ZM6.5 20.75C7.05228 20.75 7.5 21.1977 7.5 21.75V22.25C7.5 22.8023 7.05228 23.25 6.5 23.25H1C0.447715 23.25 8.05325e-09 22.8023 0 22.25V21.75C0 21.1977 0.447715 20.75 1 20.75H6.5ZM6.5 15.75C7.05228 15.75 7.5 16.1977 7.5 16.75V17.25C7.5 17.8023 7.05228 18.25 6.5 18.25H1C0.447715 18.25 8.05325e-09 17.8023 0 17.25V16.75C0 16.1977 0.447715 15.75 1 15.75H6.5Z" fill="#D9D9D9"/>
</svg>
