<svg width="41" height="40" viewBox="0 0 41 40" fill="none" xmlns="http://www.w3.org/2000/svg">
<path d="M8.85336 3.75C6.41503 3.75 5.00837 6.56667 6.5667 8.49333L19.25 24.1933V33.75H12.7167C12.3852 33.75 12.0672 33.8817 11.8328 34.1161C11.5984 34.3505 11.4667 34.6685 11.4667 35C11.4667 35.3315 11.5984 35.6495 11.8328 35.8839C12.0672 36.1183 12.3852 36.25 12.7167 36.25H28.285C28.6166 36.25 28.9345 36.1183 29.1689 35.8839C29.4033 35.6495 29.535 35.3315 29.535 35C29.535 34.6685 29.4033 34.3505 29.1689 34.1161C28.9345 33.8817 28.6166 33.75 28.285 33.75H21.7517V24.1917L34.435 8.49333C35.9917 6.565 34.585 3.75 32.1467 3.75H8.85336ZM12.0084 11.25L8.5117 6.92167C8.46333 6.85923 8.4337 6.78434 8.42627 6.70571C8.41883 6.62708 8.4339 6.54796 8.4697 6.47757C8.50551 6.40718 8.56059 6.34841 8.62852 6.30812C8.69644 6.26783 8.77442 6.24767 8.85336 6.25H32.1467C32.5317 6.25 32.6967 6.66667 32.49 6.92167L28.9934 11.25H12.0084Z" fill="#ECECEC"/>
<path d="M20.4999 22.0834L28.9943 11.25H12.0216L20.4999 22.0834Z" fill="#ECECEC"/>
</svg>
