<svg width="41" height="40" viewBox="0 0 41 40" fill="none" xmlns="http://www.w3.org/2000/svg">
<path d="M3.83337 20C3.83337 22.1887 4.26447 24.356 5.10205 26.3781C5.93963 28.4002 7.16728 30.2375 8.71493 31.7852C10.2626 33.3328 12.0999 34.5605 14.122 35.398C16.1441 36.2356 18.3113 36.6667 20.5 36.6667C22.6887 36.6667 24.856 36.2356 26.8781 35.398C28.9002 34.5605 30.7375 33.3328 32.2852 31.7852C33.8328 30.2375 35.0605 28.4002 35.898 26.3781C36.7356 24.356 37.1667 22.1887 37.1667 20C37.1667 17.8113 36.7356 15.6441 35.898 13.622C35.0605 11.5999 33.8328 9.76257 32.2852 8.21493C30.7375 6.66728 28.9002 5.43963 26.8781 4.60205C24.856 3.76447 22.6887 3.33337 20.5 3.33337C18.3113 3.33337 16.1441 3.76447 14.122 4.60205C12.0999 5.43963 10.2626 6.66728 8.71493 8.21493C7.16728 9.76257 5.93963 11.5999 5.10205 13.622C4.26447 15.6441 3.83337 17.8113 3.83337 20Z" stroke="#ECECEC" stroke-width="2" stroke-linecap="round" stroke-linejoin="round"/>
<path d="M24.7043 15.1042C24.2601 14.2375 23.426 13.7157 22.5376 13.75H20.129C18.8001 13.75 17.7222 14.9598 17.7222 16.4584C17.7222 17.9516 18.8001 19.1649 20.129 19.1649H22.5376C23.8665 19.1649 24.9444 20.3764 24.9444 21.8732C24.9444 23.3682 23.8665 24.5798 22.5376 24.5798H20.129C19.2407 24.6141 18.4065 24.0923 17.9624 23.2256M21.3333 10.1389V13.75M21.3333 24.5834V28.1945M10.5 8.33337L13.2083 11.0417M29.4583 27.2917L32.1667 30" stroke="#ECECEC" stroke-width="2" stroke-linecap="round" stroke-linejoin="round"/>
</svg>
