<svg width="24" height="24" viewBox="0 0 24 24" fill="none" xmlns="http://www.w3.org/2000/svg">
<path d="M5.99997 10V13C5.99996 13.1555 5.96366 13.3089 5.89397 13.448L4.61997 16H19.384L18.108 13.448C18.0376 13.3091 18.0006 13.1557 18 13V10C18 8.4087 17.3678 6.88258 16.2426 5.75736C15.1174 4.63214 13.5913 4 12 4C10.4087 4 8.88254 4.63214 7.75733 5.75736C6.63211 6.88258 5.99997 8.4087 5.99997 10ZM7.99997 18H2.99997C2.82944 18 2.66174 17.9564 2.51282 17.8733C2.3639 17.7902 2.2387 17.6704 2.14911 17.5253C2.05952 17.3802 2.00853 17.2146 2.00098 17.0443C1.99343 16.8739 2.02957 16.7045 2.10597 16.552L3.99997 12.764V10C3.99997 7.87827 4.84282 5.84344 6.34311 4.34315C7.8434 2.84285 9.87823 2 12 2C14.1217 2 16.1565 2.84285 17.6568 4.34315C19.1571 5.84344 20 7.87827 20 10V12.764L21.894 16.552C21.9704 16.7045 22.0065 16.8739 21.999 17.0443C21.9914 17.2146 21.9404 17.3802 21.8508 17.5253C21.7612 17.6704 21.636 17.7902 21.4871 17.8733C21.3382 17.9564 21.1705 18 21 18H16C16 19.0609 15.5785 20.0783 14.8284 20.8284C14.0782 21.5786 13.0608 22 12 22C10.9391 22 9.92168 21.5786 9.17154 20.8284C8.42139 20.0783 7.99997 19.0609 7.99997 18ZM14 18H9.99997C9.99997 18.5304 10.2107 19.0391 10.5858 19.4142C10.9608 19.7893 11.4695 20 12 20C12.5304 20 13.0391 19.7893 13.4142 19.4142C13.7893 19.0391 14 18.5304 14 18Z" fill="#ECECEC"/>
</svg>
