<svg width="12" height="12" viewBox="0 0 12 12" fill="none" xmlns="http://www.w3.org/2000/svg">
<path d="M1.5 2.77274C1.5 2.66424 1.5431 2.56019 1.61982 2.48347C1.69654 2.40675 1.80059 2.36365 1.90909 2.36365H10.0909C10.1994 2.36365 10.3035 2.40675 10.3802 2.48347C10.4569 2.56019 10.5 2.66424 10.5 2.77274C10.5 2.88124 10.4569 2.98529 10.3802 3.06201C10.3035 3.13873 10.1994 3.18183 10.0909 3.18183H1.90909C1.80059 3.18183 1.69654 3.13873 1.61982 3.06201C1.5431 2.98529 1.5 2.88124 1.5 2.77274ZM2.86364 5.50001C2.86364 5.39151 2.90674 5.28746 2.98346 5.21074C3.06018 5.13402 3.16423 5.09092 3.27273 5.09092H8.72727C8.83577 5.09092 8.93982 5.13402 9.01654 5.21074C9.09326 5.28746 9.13636 5.39151 9.13636 5.50001C9.13636 5.60851 9.09326 5.71256 9.01654 5.78928C8.93982 5.866 8.83577 5.9091 8.72727 5.9091H3.27273C3.16423 5.9091 3.06018 5.866 2.98346 5.78928C2.90674 5.71256 2.86364 5.60851 2.86364 5.50001ZM4.5 8.22728C4.5 8.11879 4.5431 8.01473 4.61982 7.93801C4.69654 7.86129 4.80059 7.81819 4.90909 7.81819H7.09091C7.19941 7.81819 7.30346 7.86129 7.38018 7.93801C7.4569 8.01473 7.5 8.11879 7.5 8.22728C7.5 8.33578 7.4569 8.43984 7.38018 8.51655C7.30346 8.59327 7.19941 8.63637 7.09091 8.63637H4.90909C4.80059 8.63637 4.69654 8.59327 4.61982 8.51655C4.5431 8.43984 4.5 8.33578 4.5 8.22728Z" fill="#ECECEC"/>
</svg>
