<svg width="12" height="12" viewBox="0 0 12 12" fill="none" xmlns="http://www.w3.org/2000/svg">
<path d="M2.5 10V9H9.5V10H2.5ZM2.5 8.25L1.8625 4.2375C1.84583 4.2375 1.827 4.23967 1.806 4.244C1.785 4.24833 1.76633 4.25033 1.75 4.25C1.54167 4.25 1.36467 4.177 1.219 4.031C1.07333 3.885 1.00033 3.708 1 3.5C0.999668 3.292 1.07267 3.115 1.219 2.969C1.36533 2.823 1.54233 2.75 1.75 2.75C1.95767 2.75 2.13483 2.823 2.2815 2.969C2.42817 3.115 2.501 3.292 2.5 3.5C2.5 3.55833 2.49367 3.6125 2.481 3.6625C2.46833 3.7125 2.45383 3.75833 2.4375 3.8L4 4.5L5.5625 2.3625C5.47083 2.29583 5.39583 2.20833 5.3375 2.1C5.27917 1.99167 5.25 1.875 5.25 1.75C5.25 1.54167 5.323 1.3645 5.469 1.2185C5.615 1.0725 5.792 0.999668 6 1C6.208 1.00033 6.38517 1.07333 6.5315 1.219C6.67783 1.36467 6.75067 1.54167 6.75 1.75C6.75 1.875 6.72083 1.99167 6.6625 2.1C6.60417 2.20833 6.52917 2.29583 6.4375 2.3625L8 4.5L9.5625 3.8C9.54583 3.75833 9.53117 3.7125 9.5185 3.6625C9.50583 3.6125 9.49967 3.55833 9.5 3.5C9.5 3.29167 9.573 3.1145 9.719 2.9685C9.865 2.8225 10.042 2.74967 10.25 2.75C10.458 2.75033 10.6352 2.82333 10.7815 2.969C10.9278 3.11467 11.0007 3.29167 11 3.5C10.9993 3.70833 10.9265 3.8855 10.7815 4.0315C10.6365 4.1775 10.4593 4.25033 10.25 4.25C10.2333 4.25 10.2147 4.248 10.194 4.244C10.1733 4.24 10.1545 4.23783 10.1375 4.2375L9.5 8.25H2.5Z" fill="#B5FF60"/>
</svg>
