<svg width="16" height="16" viewBox="0 0 16 16" fill="none" xmlns="http://www.w3.org/2000/svg">
<path fill-rule="evenodd" clip-rule="evenodd" d="M7.93319 1.33465C8.66277 1.32543 9.38649 1.46603 10.0596 1.74775C10.7326 2.02946 11.3407 2.4463 11.8462 2.97248C12.3517 3.49865 12.7438 4.12296 12.9983 4.80678C13.2529 5.49059 13.3643 6.21936 13.3259 6.94799C13.2756 7.88812 12.9773 8.79818 12.4613 9.58568C12.4374 9.63445 12.4076 9.68012 12.3727 9.72166L12.3007 9.80765C12.1816 9.96986 12.0543 10.1252 11.9187 10.2736L8.51112 14.4224C8.44858 14.4985 8.36997 14.5598 8.28094 14.6018C8.1919 14.6439 8.09465 14.6657 7.99618 14.6657C7.8977 14.6657 7.80045 14.6439 7.71142 14.6018C7.62238 14.5598 7.54377 14.4985 7.48124 14.4224L3.98432 10.1776L3.98299 10.1763C3.91318 10.0928 3.84452 10.0083 3.77701 9.92297L3.68835 9.81432C3.65416 9.77308 3.62507 9.72787 3.6017 9.67967C3.05551 8.8837 2.73577 7.95433 2.67664 6.9908C2.6175 6.02727 2.82118 5.06577 3.26593 4.20898C3.71069 3.35219 4.3798 2.6323 5.20183 2.12617C6.02385 1.62005 6.96791 1.34603 7.93319 1.33465ZM9.99561 6.66936C10.0005 6.935 9.95233 7.19894 9.85402 7.44577C9.75572 7.6926 9.60922 7.91737 9.42307 8.10695C9.23693 8.29652 9.01487 8.4471 8.76988 8.54989C8.52488 8.65269 8.26186 8.70563 7.99618 8.70563C7.73049 8.70563 7.46747 8.65269 7.22248 8.54989C6.97748 8.4471 6.75543 8.29652 6.56928 8.10695C6.38314 7.91737 6.23663 7.6926 6.13833 7.44577C6.04003 7.19894 5.9919 6.935 5.99675 6.66936C6.00632 6.1454 6.22117 5.64613 6.5951 5.27897C6.96902 4.91181 7.47213 4.7061 7.99618 4.7061C8.52022 4.7061 9.02333 4.91181 9.39726 5.27897C9.77118 5.64613 9.98604 6.1454 9.99561 6.66936Z" fill="#ECECEC"/>
</svg>
