<svg width="25" height="25" viewBox="0 0 25 25" fill="none" xmlns="http://www.w3.org/2000/svg">
<path fill-rule="evenodd" clip-rule="evenodd" d="M17.9034 15.8985C19.2227 14.197 19.8444 12.0566 19.6422 9.9128C19.44 7.76898 18.4289 5.78276 16.8148 4.35821C15.2006 2.93367 13.1046 2.17781 10.9531 2.24441C8.80167 2.31101 6.75638 3.19507 5.23335 4.71673C3.709 6.23945 2.82241 8.28634 2.75424 10.4403C2.68608 12.5942 3.44147 14.6932 4.86649 16.3093C6.2915 17.9254 8.27889 18.9371 10.4237 19.1383C12.5684 19.3394 14.7092 18.7149 16.4096 17.3919L16.4551 17.4395L20.9429 21.9302C21.0412 22.0285 21.1579 22.1065 21.2864 22.1597C21.4148 22.213 21.5524 22.2404 21.6915 22.2404C21.8305 22.2404 21.9681 22.213 22.0965 22.1597C22.225 22.1065 22.3417 22.0285 22.44 21.9302C22.5383 21.8319 22.6162 21.7151 22.6694 21.5866C22.7226 21.4582 22.75 21.3205 22.75 21.1814C22.75 21.0423 22.7226 20.9046 22.6694 20.7761C22.6162 20.6477 22.5383 20.5309 22.44 20.4326L17.951 15.9429L17.9034 15.8985ZM15.7071 6.21434C16.3044 6.80224 16.7795 7.50265 17.1049 8.27514C17.4303 9.04764 17.5996 9.87694 17.603 10.7152C17.6064 11.5535 17.4439 12.3841 17.1248 13.1593C16.8057 13.9344 16.3363 14.6386 15.7438 15.2314C15.1513 15.8241 14.4473 16.2937 13.6725 16.6129C12.8977 16.9321 12.0674 17.0947 11.2294 17.0913C10.3915 17.0879 9.56254 16.9185 8.79035 16.593C8.01816 16.2675 7.31804 15.7922 6.73036 15.1947C5.55594 14.0005 4.90079 12.3904 4.90761 10.7152C4.91443 9.03999 5.58267 7.43533 6.76677 6.25076C7.95087 5.06618 9.55489 4.39768 11.2294 4.39086C12.904 4.38404 14.5134 5.03945 15.7071 6.21434Z" fill="white"/>
</svg>
