<svg width="14" height="14" viewBox="0 0 14 14" fill="none" xmlns="http://www.w3.org/2000/svg">
<path d="M6.99996 10.4864L3.58699 12.5473C3.4867 12.5969 3.39362 12.6169 3.30774 12.6075C3.2225 12.5975 3.13945 12.568 3.05859 12.5191C2.9771 12.469 2.91568 12.3982 2.87431 12.3066C2.83294 12.2151 2.82918 12.1152 2.86302 12.0067L3.77127 8.14244L0.767289 5.53805C0.682669 5.4691 0.626883 5.38667 0.599931 5.29077C0.572978 5.19487 0.578933 5.10304 0.617795 5.01529C0.656657 4.92754 0.708369 4.85545 0.77293 4.79904C0.838118 4.74451 0.925871 4.70753 1.03619 4.6881L5.00013 4.3421L6.54584 0.682787C6.58846 0.579364 6.64989 0.504773 6.73012 0.459016C6.81035 0.413259 6.9003 0.390381 6.99996 0.390381C7.09962 0.390381 7.18988 0.413259 7.27074 0.459016C7.3516 0.504773 7.41271 0.579364 7.45408 0.682787L8.99979 4.3421L12.9628 4.6881C13.0737 4.7069 13.1618 4.74419 13.227 4.79998C13.2922 4.85514 13.3442 4.92691 13.3831 5.01529C13.4213 5.10304 13.4269 5.19487 13.4 5.29077C13.373 5.38667 13.3173 5.4691 13.2326 5.53805L10.2287 8.14244L11.1369 12.0067C11.172 12.1139 11.1686 12.2136 11.1266 12.3057C11.0846 12.3978 11.0228 12.4687 10.9413 12.5182C10.8611 12.5683 10.7781 12.5981 10.6922 12.6075C10.6069 12.6169 10.5142 12.5969 10.4139 12.5473L6.99996 10.4864Z" fill="#B5FF60"/>
</svg>
