<svg width="15" height="15" viewBox="0 0 15 15" fill="none" xmlns="http://www.w3.org/2000/svg">
<path d="M13.596 10.6211C13.4533 10.4691 12.9493 10.0195 12.0229 9.42479C11.0897 8.82487 10.4014 8.45081 10.204 8.36358C10.1866 8.35587 10.1674 8.35304 10.1485 8.3554C10.1297 8.35776 10.1118 8.36522 10.0968 8.37698C9.77881 8.62499 9.24342 9.08054 9.21471 9.10515C9.02931 9.26401 9.02931 9.26401 8.87756 9.21452C8.61068 9.12702 7.78162 8.68679 7.0592 7.96272C6.33678 7.23866 5.87385 6.38909 5.78635 6.12249C5.73631 5.97046 5.73631 5.97046 5.89572 5.78507C5.92033 5.75636 6.37615 5.22097 6.62416 4.90323C6.63592 4.88827 6.64338 4.87038 6.64574 4.8515C6.64811 4.83261 6.64528 4.81344 6.63756 4.79604C6.55033 4.59835 6.17627 3.91038 5.57635 2.97714C4.9808 2.05101 4.53182 1.54706 4.37978 1.40433C4.36583 1.39116 4.34859 1.382 4.32987 1.37782C4.31115 1.37363 4.29165 1.37457 4.27342 1.38054C3.74199 1.56317 3.22924 1.7962 2.74217 2.07643C2.27197 2.34977 1.82682 2.66408 1.41189 3.01569C1.39741 3.02801 1.38655 3.04403 1.38048 3.06205C1.37441 3.08006 1.37336 3.09939 1.37744 3.11796C1.43459 3.38429 1.70775 4.49608 2.55541 6.03608C3.42029 7.6078 4.01967 8.41307 5.28978 9.67882C6.5599 10.9446 7.3906 11.58 8.96396 12.4449C10.504 13.2926 11.6163 13.566 11.8821 13.6226C11.9007 13.6266 11.9201 13.6256 11.9381 13.6195C11.9562 13.6134 11.9722 13.6026 11.9846 13.5882C12.3362 13.1732 12.6504 12.7281 12.9236 12.2579C13.2038 11.7708 13.4368 11.258 13.6195 10.7266C13.6254 10.7085 13.6263 10.6892 13.6221 10.6707C13.618 10.6521 13.609 10.635 13.596 10.6211Z" fill="#CACACB"/>
</svg>
