<svg width="16" height="16" viewBox="0 0 16 16" fill="none" xmlns="http://www.w3.org/2000/svg">
<path d="M15.9648 8.5C15.7067 12.6853 12.2327 16 7.98242 16C7.83792 16 7.69438 15.9949 7.55176 15.9873C7.55571 15.9865 7.55954 15.9853 7.56348 15.9844C7.57586 15.9814 7.58842 15.9795 7.60059 15.9756C7.60991 15.9726 7.61875 15.9684 7.62793 15.9648C7.64451 15.9584 7.66081 15.9516 7.67676 15.9434C7.67818 15.9426 7.68023 15.9431 7.68164 15.9424L7.70215 15.9277C7.71987 15.9172 7.73734 15.9064 7.75391 15.8936L7.7666 15.8867L7.98535 15.7012C10.1794 13.7981 11.3483 11.1725 11.4756 8.5H15.9648ZM3.71973 8.5C3.83349 11.0334 4.83619 13.5289 6.71387 15.4766L7.10742 15.8652L7.11621 15.8721C7.12827 15.8829 7.14144 15.8919 7.1543 15.9014L7.1875 15.9268C7.21278 15.9423 7.23955 15.9543 7.2666 15.9648L7.26855 15.9658C3.34902 15.6191 0.243571 12.4481 0 8.5H3.71973ZM10.4766 8.5C10.3545 10.8146 9.36472 13.0864 7.52246 14.7754L7.4707 14.8193C5.75586 13.059 4.83573 10.7982 4.72168 8.5H10.4766ZM7.24609 0.0429688C7.18658 0.0693448 7.13126 0.107774 7.08398 0.158203C7.08288 0.159387 7.08215 0.160918 7.08105 0.162109L6.60059 0.676758C4.79171 2.61484 3.83864 5.04389 3.72168 7.5H0C0.243765 3.5485 3.35413 0.374487 7.27832 0.0322266C7.26771 0.0360973 7.25646 0.0383592 7.24609 0.0429688ZM7.58887 1.31641C9.39405 3.00896 10.3492 5.23794 10.4746 7.5H4.72363C4.83956 5.28878 5.70228 3.10467 7.33105 1.35938L7.47168 1.20703L7.58887 1.31641ZM7.98242 0C12.2327 0 15.7067 3.3147 15.9648 7.5H11.4746C11.3485 4.97244 10.2893 2.47785 8.27246 0.586914L7.79102 0.134766C7.72114 0.0693504 7.63727 0.0285727 7.5498 0.0107422C7.69303 0.00311063 7.83729 0 7.98242 0Z" fill="#535355"/>
</svg>
