<svg width="18" height="18" viewBox="0 0 18 18" fill="none" xmlns="http://www.w3.org/2000/svg">
<path d="M8.86999 8L8.60999 9H9.42499L9.15999 8H8.86999Z" fill="#535355"/>
<path d="M5.96996 9H7.31496L7.57996 8H5.70496L5.96996 9Z" fill="#535355"/>
<path d="M6.64499 11.55L7.04999 10H6.23499L6.64499 11.55Z" fill="#535355"/>
<path d="M10.72 9H12.065L12.33 8H10.455L10.72 9Z" fill="#535355"/>
<path d="M11.39 11.55L11.8 10H10.985L11.39 11.55Z" fill="#535355"/>
<path d="M9 1C7.41775 1 5.87103 1.46919 4.55544 2.34824C3.23985 3.22729 2.21447 4.47672 1.60897 5.93853C1.00347 7.40034 0.84504 9.00887 1.15372 10.5607C1.4624 12.1126 2.22433 13.538 3.34315 14.6569C4.46197 15.7757 5.88743 16.5376 7.43928 16.8463C8.99113 17.155 10.5997 16.9965 12.0615 16.391C13.5233 15.7855 14.7727 14.7602 15.6518 13.4446C16.5308 12.129 17 10.5823 17 9C17 6.87827 16.1571 4.84344 14.6569 3.34315C13.1566 1.84285 11.1217 1 9 1ZM14.5 10H13.095L12 14.16C11.9653 14.294 11.887 14.4127 11.7775 14.4974C11.668 14.5822 11.5335 14.6282 11.395 14.6282C11.2565 14.6282 11.122 14.5822 11.0125 14.4974C10.903 14.4127 10.8247 14.294 10.79 14.16L9.69 10H8.345L7.25 14.16C7.21526 14.294 7.13699 14.4127 7.02749 14.4974C6.91799 14.5822 6.78346 14.6282 6.645 14.6282C6.50655 14.6282 6.37201 14.5822 6.26251 14.4974C6.15301 14.4127 6.07475 14.294 6.04 14.16L4.94 10H3.5C3.3674 10 3.24022 9.94732 3.14645 9.85355C3.05268 9.75979 3 9.63261 3 9.5C3 9.36739 3.05268 9.24021 3.14645 9.14645C3.24022 9.05268 3.3674 9 3.5 9H4.675L4.41 8H3.5C3.3674 8 3.24022 7.94732 3.14645 7.85355C3.05268 7.75979 3 7.63261 3 7.5C3 7.36739 3.05268 7.24021 3.14645 7.14645C3.24022 7.05268 3.3674 7 3.5 7H4.15L3.65 5.16C3.60757 4.99954 3.63061 4.8288 3.71407 4.68534C3.79752 4.54187 3.93455 4.43743 4.095 4.395C4.25546 4.35257 4.4262 4.37561 4.56967 4.45906C4.71313 4.54252 4.81757 4.67954 4.86 4.84L5.44 7H7.84L8.41 4.84C8.44475 4.70598 8.52301 4.58728 8.63251 4.50255C8.74201 4.41782 8.87655 4.37184 9.015 4.37184C9.15346 4.37184 9.28799 4.41782 9.39749 4.50255C9.50699 4.58728 9.58526 4.70598 9.62 4.84L10.19 7H12.59L13.16 4.84C13.2024 4.67954 13.3069 4.54252 13.4503 4.45906C13.5938 4.37561 13.7645 4.35257 13.925 4.395C14.0855 4.43743 14.2225 4.54187 14.3059 4.68534C14.3894 4.8288 14.4124 4.99954 14.37 5.16L13.87 7H14.5C14.6326 7 14.7598 7.05268 14.8536 7.14645C14.9473 7.24021 15 7.36739 15 7.5C15 7.63261 14.9473 7.75979 14.8536 7.85355C14.7598 7.94732 14.6326 8 14.5 8H13.62L13.355 9H14.5C14.6326 9 14.7598 9.05268 14.8536 9.14645C14.9473 9.24021 15 9.36739 15 9.5C15 9.63261 14.9473 9.75979 14.8536 9.85355C14.7598 9.94732 14.6326 10 14.5 10Z" fill="#535355"/>
</svg>
