<svg width="8" height="8" viewBox="0 0 8 8" fill="none" xmlns="http://www.w3.org/2000/svg">
<path d="M7.00191 0.218828C7.19717 0.0235683 7.51368 0.0235802 7.70894 0.218828C7.9042 0.414094 7.9042 0.730594 7.70894 0.925859L4.63375 4.00008L7.70797 7.0743C7.903 7.26958 7.90315 7.58614 7.70797 7.78133C7.51276 7.97631 7.19614 7.97631 7.00094 7.78133L3.92769 4.70711L0.854452 7.78133C0.659297 7.97639 0.342675 7.97623 0.14742 7.78133C-0.0478029 7.5861 -0.0477326 7.26957 0.14742 7.0743L3.22066 4.00008L0.146444 0.925859C-0.0488146 0.730594 -0.0488146 0.414094 0.146444 0.218828C0.341713 0.023696 0.658261 0.0236069 0.853475 0.218828L3.92769 3.29305L7.00191 0.218828Z" fill="#9F9FA1"/>
</svg>
