<svg width="64" height="64" viewBox="0 0 64 64" fill="none" xmlns="http://www.w3.org/2000/svg">
<path d="M31.9213 4.10474C16.5267 4.10474 4.29004 16.3415 4.29004 31.7361C4.29004 47.1307 16.5267 59.3674 31.9213 59.3674C47.3159 59.3674 59.5526 47.1307 59.5526 31.7361C59.5526 16.3415 47.3159 4.10474 31.9213 4.10474ZM31.9213 55.4201C18.8951 55.4201 8.23737 44.7623 8.23737 31.7361C8.23737 18.7099 18.8951 8.05207 31.9213 8.05207C44.9475 8.05207 55.6053 18.7099 55.6053 31.7361C55.6053 44.7623 44.9475 55.4201 31.9213 55.4201Z" fill="#7731FE"/>
<path d="M42.5794 45.5518L31.9216 34.8939L21.2638 45.5518L18.106 42.3939L28.7637 31.7361L18.106 21.0783L21.2638 17.9204L31.9216 28.5782L42.5794 17.9204L45.7372 21.0783L35.0795 31.7361L45.7372 42.3939L42.5794 45.5518Z" fill="#7731FE"/>
</svg>
