<svg width="127" height="127" viewBox="0 0 127 127" fill="none" xmlns="http://www.w3.org/2000/svg">
<path d="M93.2622 70.0518C95.0977 70.0518 96.8588 70.7812 98.1567 72.0791C99.4544 73.3769 100.183 75.1374 100.183 76.9727V81.1787C99.3329 83.3528 98.6599 85.6158 98.1831 87.9502V76.9727C98.183 75.6678 97.6653 74.4159 96.7427 73.4932C95.8198 72.5704 94.5672 72.0518 93.2622 72.0518H77.4731C76.1682 72.0518 74.9165 72.5705 73.9936 73.4932C73.0709 74.4159 72.5523 75.6677 72.5522 76.9727V113.473H98.1831V104.679C98.6598 107.013 99.333 109.276 100.183 111.45V113.473H101.036C101.343 114.15 101.67 114.816 102.011 115.473H8.395C7.84277 115.473 7.39509 115.025 7.395 114.473C7.39512 113.92 7.84279 113.473 8.395 113.473H70.5522V76.9727C70.5523 75.1372 71.2817 73.377 72.5796 72.0791C73.8775 70.7813 75.6377 70.0518 77.4731 70.0518H93.2622ZM95.394 10.8506C100.912 11.0403 105.891 14.1522 108.085 18.9395L108.086 18.9404L118.768 42.2637L118.945 42.667C121.732 49.315 118.318 56.4404 112.026 59.3525V64.6074C111.34 65.1899 110.673 65.7938 110.026 66.4189V60.1025C108.837 60.4514 107.573 60.6618 106.249 60.7031H105.736C99.3931 60.703 93.8911 57.0459 91.7104 51.8145C89.5291 57.0459 84.0256 60.703 77.6831 60.7031C71.3644 60.7031 65.9013 56.814 63.6968 51.7227C61.546 57.0025 56.0253 60.7029 49.645 60.7031C43.288 60.7031 37.7963 56.766 35.6177 51.6289C33.4411 56.7708 27.95 60.703 21.5913 60.7031H21.0679C19.7432 60.6626 18.4781 60.4529 17.2895 60.1045V110.525C17.2894 111.077 16.8416 111.525 16.2895 111.525C15.7374 111.525 15.2897 111.078 15.2895 110.525V59.3555C8.86905 56.3867 5.44599 49.0282 8.54637 42.2637L19.229 18.9395C21.494 13.9978 26.7267 10.8418 32.4565 10.8418H94.8589L95.394 10.8506ZM53.7895 70.0518C55.6249 70.0519 57.3853 70.7813 58.6831 72.0791C59.9809 73.3769 60.7103 75.1373 60.7104 76.9727V98.6836C60.7102 99.2355 60.2624 99.6834 59.7104 99.6836H28.1313C27.5793 99.6834 27.1316 99.2356 27.1313 98.6836V76.9727C27.1314 75.1373 27.8609 73.3769 29.1587 72.0791C30.4565 70.7814 32.2169 70.0519 34.0522 70.0518H53.7895ZM34.0522 72.0518C32.7474 72.0519 31.4955 72.5705 30.5727 73.4932C29.65 74.4159 29.1314 75.6677 29.1313 76.9727V97.6836H58.7104V76.9727C58.7103 75.6677 58.1918 74.4159 57.269 73.4932C56.3463 72.5704 55.0945 72.0519 53.7895 72.0518H34.0522ZM31.9878 12.8496C27.1579 13.0156 22.8973 15.7372 21.0473 19.7734L10.3647 43.0967C7.10995 50.1978 12.4663 58.4251 21.1069 58.7031H21.5913C28.8441 58.703 34.6167 52.8817 34.6167 46.8174C34.6169 46.2653 35.0646 45.8174 35.6167 45.8174C36.1687 45.8175 36.6164 46.2654 36.6167 46.8174C36.6167 52.8698 42.3925 58.7031 49.645 58.7031C56.9193 58.7028 62.6577 53.3054 62.6577 46.8174C62.658 46.2653 63.1056 45.8174 63.6577 45.8174C64.1754 45.8176 64.6017 46.2116 64.6528 46.7158L64.6577 46.8174L64.6616 47.1016C64.8384 53.0514 70.5443 58.7031 77.6831 58.7031C84.959 58.7029 90.7104 53.3042 90.7104 46.8174C90.7107 46.2654 91.1584 45.8175 91.7104 45.8174C92.2625 45.8175 92.7102 46.2654 92.7104 46.8174C92.7104 53.3044 98.4601 58.703 105.736 58.7031H106.208C114.849 58.4204 120.204 50.1931 116.951 43.0977L116.95 43.0967L106.268 19.7734L106.082 19.3867C104.143 15.564 100.002 13.0104 95.3276 12.8496L94.8589 12.8418H32.4565L31.9878 12.8496Z" fill="#CACACB"/>
</svg>
