<svg width="53" height="52" viewBox="0 0 53 52" fill="none" xmlns="http://www.w3.org/2000/svg">
<path fill-rule="evenodd" clip-rule="evenodd" d="M26.5 45.5C29.0608 45.5 31.5965 44.9956 33.9623 44.0157C36.3282 43.0357 38.4778 41.5993 40.2886 39.7886C42.0993 37.9778 43.5357 35.8282 44.5157 33.4623C45.4956 31.0965 46 28.5608 46 26C46 23.4392 45.4956 20.9035 44.5157 18.5377C43.5357 16.1718 42.0993 14.0222 40.2886 12.2114C38.4778 10.4007 36.3282 8.96432 33.9623 7.98435C31.5965 7.00438 29.0608 6.5 26.5 6.5C21.3283 6.5 16.3684 8.55446 12.7114 12.2114C9.05446 15.8684 7 20.8283 7 26C7 31.1717 9.05446 36.1316 12.7114 39.7886C16.3684 43.4455 21.3283 45.5 26.5 45.5ZM25.9973 33.8867L36.8307 20.8867L33.5027 18.1133L24.186 29.2912L19.3652 24.4682L16.3015 27.5318L22.8015 34.0318L24.4785 35.7088L25.9973 33.8867Z" fill="#B5FF60"/>
</svg>
