<svg width="16" height="16" viewBox="0 0 16 16" fill="none" xmlns="http://www.w3.org/2000/svg">
<path d="M0 0.666504H3.176L5.176 7.99984H12.186L14.2453 1.82317L15.51 2.24517L13.1467 9.33317H5.18667L4.85333 10.6665H14.6667V11.9998H3.14667L3.97733 8.67384L2.15733 1.99984H0V0.666504ZM9.33333 1.33317V3.33317H11.3333V4.6665H9.33333V6.6665H8V4.6665H6V3.33317H8V1.33317H9.33333ZM2.66667 13.9998C2.66667 13.6462 2.80714 13.3071 3.05719 13.057C3.30724 12.807 3.64638 12.6665 4 12.6665C4.35362 12.6665 4.69276 12.807 4.94281 13.057C5.19286 13.3071 5.33333 13.6462 5.33333 13.9998C5.33333 14.3535 5.19286 14.6926 4.94281 14.9426C4.69276 15.1927 4.35362 15.3332 4 15.3332C3.64638 15.3332 3.30724 15.1927 3.05719 14.9426C2.80714 14.6926 2.66667 14.3535 2.66667 13.9998ZM12 13.9998C12 13.6462 12.1405 13.3071 12.3905 13.057C12.6406 12.807 12.9797 12.6665 13.3333 12.6665C13.687 12.6665 14.0261 12.807 14.2761 13.057C14.5262 13.3071 14.6667 13.6462 14.6667 13.9998C14.6667 14.3535 14.5262 14.6926 14.2761 14.9426C14.0261 15.1927 13.687 15.3332 13.3333 15.3332C12.9797 15.3332 12.6406 15.1927 12.3905 14.9426C12.1405 14.6926 12 14.3535 12 13.9998Z" fill="#B5FF60"/>
</svg>
