<svg width="24" height="24" viewBox="0 0 24 24" fill="none" xmlns="http://www.w3.org/2000/svg">
<path d="M12 11.3848C11.1693 11.3848 10.4617 11.0924 9.877 10.5078C9.29233 9.9231 9 9.21543 9 8.38477C9 7.5541 9.29233 6.84643 9.877 6.26177C10.4617 5.6771 11.1693 5.38477 12 5.38477C12.8307 5.38477 13.5383 5.6771 14.123 6.26177C14.7077 6.84643 15 7.5541 15 8.38477C15 9.21543 14.7077 9.9231 14.123 10.5078C13.5383 11.0924 12.8307 11.3848 12 11.3848ZM5 17.5768V16.9688C5 16.5561 5.12 16.1701 5.36 15.8108C5.60067 15.4508 5.924 15.1714 6.33 14.9728C7.274 14.5201 8.21867 14.1808 9.164 13.9548C10.1087 13.7281 11.054 13.6148 12 13.6148C12.946 13.6148 13.8917 13.7281 14.837 13.9548C15.7823 14.1814 16.7263 14.5208 17.669 14.9728C18.0757 15.1714 18.399 15.4508 18.639 15.8108C18.8797 16.1701 19 16.5561 19 16.9688V17.5768C19 17.8701 18.9003 18.1168 18.701 18.3168C18.5017 18.5154 18.255 18.6148 17.961 18.6148H6.04C5.746 18.6148 5.49933 18.5151 5.3 18.3158C5.10067 18.1164 5.00067 17.8701 5 17.5768Z" fill="white"/>
</svg>
