<svg width="80" height="80" viewBox="0 0 80 80" fill="none" xmlns="http://www.w3.org/2000/svg">
<path d="M40 0C62.0914 0 80 17.9086 80 40C80 62.0914 62.0914 80 40 80C17.9086 80 0 62.0914 0 40C0 17.9086 17.9086 0 40 0ZM58.0186 24C57.3136 24 56.6372 24.2799 56.1387 24.7783L29.792 51.0986L20.5391 41.8457C20.0406 41.3472 19.3642 41.0665 18.6592 41.0664C17.954 41.0664 17.2769 41.3471 16.7783 41.8457C16.2799 42.3443 16 43.0206 16 43.7256C16 44.0747 16.0686 44.4207 16.2021 44.7432C16.3357 45.0656 16.5316 45.3587 16.7783 45.6055L27.9258 56.752C28.9658 57.7918 30.6456 57.7919 31.6855 56.752L59.8984 28.5391C60.3969 28.0406 60.6776 27.3642 60.6777 26.6592C60.6777 25.954 60.397 25.2769 59.8984 24.7783C59.3999 24.2799 58.7235 24 58.0186 24Z" fill="#B5FF60"/>
</svg>
