<svg width="40" height="40" viewBox="0 0 40 40" fill="none" xmlns="http://www.w3.org/2000/svg">
<rect width="6.73394" height="1.34679" rx="0.673395" transform="matrix(0.707107 -0.707107 -0.707107 -0.707107 33.3281 38.0947)" fill="#CACACB"/>
<rect width="5.38716" height="1.34679" rx="0.673395" transform="matrix(-0.707107 -0.707107 -0.707107 0.707107 30.9492 36.666)" fill="#CACACB"/>
<rect width="5.38716" height="1.34679" rx="0.673395" transform="matrix(-0.707107 -0.707107 -0.707107 0.707107 37.6133 30)" fill="#CACACB"/>
<rect width="6.73394" height="6.73394" rx="1" transform="matrix(0.707107 -0.707107 -0.707107 -0.707107 31.9004 36.666)" fill="#CACACB"/>
<circle cx="19.521" cy="20.0005" r="13.1312" transform="rotate(-45 19.521 20.0005)" fill="#CACACB"/>
<rect x="1.42773" y="6.19189" width="6.73394" height="1.34679" rx="0.673395" transform="rotate(-45 1.42773 6.19189)" fill="#CACACB"/>
<rect x="2.85742" y="8.57275" width="5.38716" height="1.34679" rx="0.673395" transform="rotate(45 2.85742 8.57275)" fill="#CACACB"/>
<rect x="9.52539" y="1.90625" width="5.38716" height="1.34679" rx="0.673395" transform="rotate(45 9.52539 1.90625)" fill="#CACACB"/>
<rect x="2.85742" y="7.62012" width="6.73394" height="6.73394" rx="1" transform="rotate(-45 2.85742 7.62012)" fill="#CACACB"/>
<rect x="33.3296" y="1.90674" width="6.73394" height="1.34679" rx="0.673395" transform="rotate(45 33.3296 1.90674)" fill="#CACACB"/>
<rect x="30.9507" y="3.33545" width="5.38716" height="1.34679" rx="0.673395" transform="rotate(135 30.9507 3.33545)" fill="#CACACB"/>
<rect x="37.6147" y="10.0015" width="5.38716" height="1.34679" rx="0.673395" transform="rotate(135 37.6147 10.0015)" fill="#CACACB"/>
<rect x="31.9019" y="3.33545" width="6.73394" height="6.73394" rx="1" transform="rotate(45 31.9019 3.33545)" fill="#CACACB"/>
<rect width="6.73394" height="1.34679" rx="0.673395" transform="matrix(0.707107 0.707107 0.707107 -0.707107 1.42773 33.8101)" fill="#CACACB"/>
<rect width="5.38716" height="1.34679" rx="0.673395" transform="matrix(0.707107 -0.707107 -0.707107 -0.707107 2.85742 31.4292)" fill="#CACACB"/>
<rect width="5.38716" height="1.34679" rx="0.673395" transform="matrix(0.707107 -0.707107 -0.707107 -0.707107 9.52539 38.0952)" fill="#CACACB"/>
<rect width="6.73394" height="6.73394" rx="1" transform="matrix(0.707107 0.707107 0.707107 -0.707107 2.85742 32.3813)" fill="#CACACB"/>
</svg>
