<svg width="22" height="19" viewBox="0 0 22 19" fill="none" xmlns="http://www.w3.org/2000/svg">
<path d="M10.75 6.75C16.2728 6.75 20.75 5.40685 20.75 3.75C20.75 2.09315 16.2728 0.75 10.75 0.75C5.22715 0.75 0.75 2.09315 0.75 3.75C0.75 5.40685 5.22715 6.75 10.75 6.75Z" stroke="white" stroke-width="1.5" stroke-linecap="round" stroke-linejoin="round"/>
<path d="M10.75 14.75C12.08 14.75 12.823 15.508 13.169 16.166C13.2493 16.3226 13.2704 16.5029 13.2283 16.6738C13.1863 16.8447 13.0839 16.9946 12.94 17.096C12.2917 17.5278 11.5289 17.7556 10.75 17.75C9.922 17.75 9.16 17.505 8.56 17.095C8.41614 16.9936 8.31374 16.8437 8.27166 16.6728C8.22958 16.5019 8.25066 16.3216 8.331 16.165C8.677 15.51 9.42 14.75 10.75 14.75ZM10.75 14.75V6.75" stroke="white" stroke-width="1.5" stroke-linecap="round" stroke-linejoin="round"/>
</svg>
