<svg width="16" height="16" viewBox="0 0 16 16" fill="none" xmlns="http://www.w3.org/2000/svg">
<path d="M5.32184 10.7377L2.42224 7.83808C2.266 7.68183 2.05409 7.59406 1.83313 7.59406C1.61217 7.59406 1.40026 7.68183 1.24402 7.83808C1.08778 7.99432 1 8.20623 1 8.42719C1 8.53659 1.02155 8.64493 1.06342 8.74601C1.10529 8.84709 1.16665 8.93893 1.24402 9.0163L4.73691 12.5092C5.0628 12.8351 5.58924 12.8351 5.91513 12.5092L14.756 3.66833C14.9122 3.51209 15 3.30018 15 3.07922C15 2.85826 14.9122 2.64635 14.756 2.49011C14.5997 2.33387 14.3878 2.24609 14.1669 2.24609C13.9459 2.24609 13.734 2.33387 13.5778 2.49011L5.32184 10.7377Z" fill="#8F8F8F"/>
</svg>
